<svg xmlns="http://www.w3.org/2000/svg" viewBox="0 0 168 220" aria-hidden="true">
  <defs>
    <linearGradient id="gf" x1="0%" y1="0%" x2="100%" y2="100%"><stop offset="0%" stop-color="#fff" stop-opacity="0.2"/><stop offset="100%" stop-color="#fff" stop-opacity="0.03"/></linearGradient>
    <linearGradient id="ge" x1="100%" y1="0%" x2="0%" y2="100%"><stop offset="0%" stop-color="#ffb860" stop-opacity="0.75"/><stop offset="100%" stop-color="#fff" stop-opacity="0.08"/></linearGradient>
    <linearGradient id="ps" x1="0%" y1="0%" x2="0%" y2="100%"><stop offset="0%" stop-color="#fff" stop-opacity="0.07"/><stop offset="100%" stop-color="#fff" stop-opacity="0.02"/></linearGradient>
  </defs>
  <rect width="168" height="220" rx="9" fill="url(#gf)" stroke="url(#ge)" stroke-width="1.2"/>
  <rect x="6" y="6" width="156" height="208" rx="7" fill="url(#ps)"/>
  <rect x="14" y="18" width="140" height="72" rx="5" fill="#fff" fill-opacity="0.05" stroke="#fff" stroke-opacity="0.08"/>
  <circle cx="52" cy="54" r="22" fill="#3090ff" fill-opacity="0.4"/>
  <path d="M52,38 L62,52 L52,70 L42,52 Z" fill="#fff" fill-opacity="0.7"/>
  <rect x="84" y="40" width="56" height="5" rx="2.5" fill="#fff" opacity="0.46"/>
  <rect x="84" y="52" width="40" height="3" rx="1.5" fill="#fff" opacity="0.26"/>
  <rect x="84" y="62" width="48" height="3" rx="1.5" fill="#fff" opacity="0.18"/>
  <rect x="14" y="104" width="140" height="1" fill="#fff" opacity="0.1"/>
  <rect x="14" y="118" width="64" height="36" rx="4" fill="#e82888" fill-opacity="0.25"/>
  <rect x="22" y="130" width="36" height="3" rx="1.5" fill="#fff" opacity="0.4"/>
  <rect x="86" y="118" width="68" height="36" rx="4" fill="#fff" fill-opacity="0.06" stroke="#fff" stroke-opacity="0.1"/>
  <rect x="94" y="130" width="44" height="3" rx="1.5" fill="#fff" opacity="0.28"/>
  <rect x="14" y="168" width="140" height="38" rx="5" fill="#2080ff" fill-opacity="0.22"/>
  <rect x="26" y="182" width="72" height="4" rx="2" fill="#fff" opacity="0.42"/>
</svg>
