<svg xmlns="http://www.w3.org/2000/svg" viewBox="0 0 252 142" aria-hidden="true">
  <defs>
    <linearGradient id="gf" x1="0%" y1="0%" x2="100%" y2="100%"><stop offset="0%" stop-color="#fff" stop-opacity="0.2"/><stop offset="100%" stop-color="#fff" stop-opacity="0.03"/></linearGradient>
    <linearGradient id="ge" x1="100%" y1="0%" x2="0%" y2="100%"><stop offset="0%" stop-color="#ffb860" stop-opacity="0.75"/><stop offset="100%" stop-color="#fff" stop-opacity="0.08"/></linearGradient>
    <linearGradient id="ps" x1="0%" y1="0%" x2="0%" y2="100%"><stop offset="0%" stop-color="#fff" stop-opacity="0.07"/><stop offset="100%" stop-color="#fff" stop-opacity="0.02"/></linearGradient>
    <linearGradient id="hi" x1="0%" y1="100%" x2="100%" y2="0%"><stop offset="0%" stop-color="#e82888" stop-opacity="0.45"/><stop offset="100%" stop-color="#ff9020" stop-opacity="0.35"/></linearGradient>
    <filter id="go" x="-40%" y="-40%" width="180%" height="180%"><feDropShadow dx="3" dy="0" stdDeviation="12" flood-color="#ff9020" flood-opacity="0.28"/></filter>
  </defs>
  <g filter="url(#go)">
    <rect width="252" height="142" rx="8" fill="url(#gf)" stroke="url(#ge)" stroke-width="1.3"/>
    <rect x="5" y="5" width="242" height="132" rx="6" fill="url(#ps)"/>
    <rect x="12" y="12" width="228" height="118" rx="4" fill="url(#hi)"/>
    <rect x="28" y="88" width="96" height="6" rx="3" fill="#fff" opacity="0.52"/>
    <rect x="28" y="100" width="72" height="3" rx="1.5" fill="#fff" opacity="0.28"/>
    <circle cx="196" cy="36" r="28" fill="#fff" fill-opacity="0.1" stroke="#fff" stroke-opacity="0.2"/>
    <path d="M184,36 L196,22 L208,36 L196,54 Z" fill="#fff" fill-opacity="0.55"/>
    <circle cx="208" cy="20" r="3.5" fill="#ff6058" opacity="0.65"/>
    <circle cx="218" cy="20" r="3.5" fill="#ffbd2e" opacity="0.65"/>
    <circle cx="228" cy="20" r="3.5" fill="#28c840" opacity="0.65"/>
  </g>
</svg>
